<svg width="25" height="24" viewBox="0 0 25 24" fill="none" xmlns="http://www.w3.org/2000/svg">
<rect width="24" height="24" transform="translate(1)" fill="white"/>
<path d="M4.08092 6.17143C3.99518 5.7372 3.92664 5.36642 3.87669 5.08692C3.98162 5.08448 4.09974 5.08176 4.23015 5.07878C4.82358 5.06523 5.6714 5.04647 6.6888 5.02562C8.72375 4.98393 11.4366 4.93391 14.149 4.90056C16.8624 4.86721 19.5716 4.85059 21.601 4.87554C22.617 4.88803 23.4552 4.91087 24.0363 4.94658C24.2082 4.95715 24.3528 4.96858 24.4701 4.98055C24.4648 5.03591 24.4588 5.09629 24.4521 5.16139C24.4188 5.48447 24.3684 5.91933 24.3007 6.42743C24.1651 7.44451 23.9607 8.74811 23.6852 10.032C23.4084 11.3222 23.0655 12.5659 22.6599 13.4768C22.4563 13.9341 22.2495 14.2783 22.0485 14.5007C21.8466 14.7241 21.7002 14.7726 21.6071 14.7726L7.35712 14.7726C7.26144 14.7726 7.09993 14.7182 6.87089 14.4729C6.64626 14.2323 6.41142 13.8646 6.1752 13.3845C5.70447 12.4276 5.27913 11.1305 4.92008 9.80593C4.56257 8.48707 4.27716 7.16532 4.08092 6.17143Z" fill="white" stroke="black"/>
<line x1="7.85715" y1="18.0454" x2="21.5714" y2="18.0454" stroke="black"/>
<line y1="-0.5" x2="5.54948" y2="-0.5" transform="matrix(-0.617818 -0.786321 0.813106 -0.582115 4.42856 4.36353)" stroke="black"/>
<path d="M11.9286 21.8183C11.9286 22.7255 11.1513 23.5001 10.1429 23.5001C9.13446 23.5001 8.35715 22.7255 8.35715 21.8183C8.35715 20.9111 9.13446 20.1365 10.1429 20.1365C11.1513 20.1365 11.9286 20.9111 11.9286 21.8183Z" fill="white" stroke="black"/>
<path d="M21.0714 21.8183C21.0714 22.7255 20.2941 23.5001 19.2857 23.5001C18.2773 23.5001 17.5 22.7255 17.5 21.8183C17.5 20.9111 18.2773 20.1365 19.2857 20.1365C20.2941 20.1365 21.0714 20.9111 21.0714 21.8183Z" fill="white" stroke="black"/>
</svg>
